# xmcd CD database file
#
# Track frame offsets:
#	150
#	24457
#	52700
#
# Disc length: 1034 seconds
#
# Revision: 1
# Processed by: cddbd v1.5.1PL0 Copyright (c) Steve Scherf et al.
# Submitted via: CDex 1.51
#
DISCID=16040803
DTITLE=Gloria Estefan - Mas alla
DYEAR=1900
DGENRE=Latin
TTITLE0=Mas alla
TTITLE1=Abriendo Puertas  ( sphanish fly club mix)
TTITLE2=Abriendo Puertas 
EXTD=
EXTT0=
EXTT1=
EXTT2=
PLAYORDER=
